name analog
datacolumns 19
datarows 61
range 0.293 0.323
endheader
time	ground_force_vx	ground_force_vy	ground_force_vz	ground_force_px	ground_force_py	ground_force_pz	l_ground_force_vx	l_ground_force_vy	l_ground_force_vz	l_ground_force_px	l_ground_force_py	l_ground_force_pz	ground_torque_x	ground_torque_y	ground_torque_z	l_ground_torque_x	l_ground_torque_y	l_ground_torque_z
0.293	-0.0	-0.0	-0.0	-24.961435317993164	110.81358337402344	-632.13671875	-40.61569213867188	-148.27488708496094	-636.086181640625	-0.0	-0.0	-0.0	-0.0	-0.0	-0.0	132753.296875	55664.8203125	-25279.826171875
0.2935	-0.0	-0.0	-0.0	-27.90149307250977	112.05116271972656	-642.349609375	-42.65225982666016	-147.58203125	-644.5200805664062	-0.0	-0.0	-0.0	-0.0	-0.0	-0.0	134376.5	57131.63671875	-26251.73828125
0.294	-0.0	-0.0	-0.0	-30.231449127197266	111.76953125	-650.1466064453125	-44.26308822631836	-146.45526123046875	-653.2060546875	-0.0	-0.0	-0.0	-0.0	-0.0	-0.0	136377.46875	58738.6640625	-26791.16796875
0.2945	-0.0	-0.0	-0.0	-32.72911071777344	110.07233428955078	-656.88525390625	-46.56949234008789	-144.84756469726562	-662.6464233398438	-0.0	-0.0	-0.0	-0.0	-0.0	-0.0	137871.625	60062.9609375	-27359.59765625
0.295	-0.0	-0.0	-0.0	-36.39032745361328	108.38634490966795	-659.342041015625	-48.983306884765625	-143.18063354492188	-670.0072631835938	-0.0	-0.0	-0.0	-0.0	-0.0	-0.0	139113.3125	61344.52734375	-28130.890625
0.2955	-0.0	-0.0	-0.0	-39.43873596191406	106.52619934082033	-663.6403198242188	-52.24685287475586	-141.487548828125	-676.5361328125	-0.0	-0.0	-0.0	-0.0	-0.0	-0.0	140652.21875	62258.6953125	-28933.6640625
0.296	-0.0	-0.0	-0.0	-43.352386474609375	105.4530258178711	-666.9124145507812	-55.008445739746094	-138.4845428466797	-681.4828491210938	-0.0	-0.0	-0.0	-0.0	-0.0	-0.0	141560.078125	63897.82421875	-29560.353515625
0.2965	-0.0	-0.0	-0.0	-47.71165084838867	104.52067565917967	-670.303955078125	-58.28694152832031	-136.28036499023438	-685.2758178710938	-0.0	-0.0	-0.0	-0.0	-0.0	-0.0	142683.390625	64221.45703125	-30330.75
0.297	-0.0	-0.0	-0.0	-52.33399963378906	104.9793472290039	-675.280029296875	-62.60161590576172	-133.46609497070312	-689.5269165039062	-0.0	-0.0	-0.0	-0.0	-0.0	-0.0	143334.71875	65539.2109375	-31294.453125
0.2975	-0.0	-0.0	-0.0	-57.24419784545898	104.8214874267578	-680.4794921875	-67.04080200195312	-132.13331604003906	-694.7151489257812	-0.0	-0.0	-0.0	-0.0	-0.0	-0.0	144446.90625	67016.1875	-32118.404296875
0.298	-0.0	-0.0	-0.0	-62.69816207885742	105.07633972167967	-682.22705078125	-71.7545394897461	-130.4677276611328	-699.6506958007812	-0.0	-0.0	-0.0	-0.0	-0.0	-0.0	145357.6875	67999.9765625	-33244.390625
0.2985	-0.0	-0.0	-0.0	-69.09101867675781	105.25016021728516	-685.4713134765625	-77.95133209228516	-129.93809509277344	-703.1746826171875	-0.0	-0.0	-0.0	-0.0	-0.0	-0.0	146245.6875	69433.8359375	-34583.4609375
0.299	-0.0	-0.0	-0.0	-76.31201171875	104.85211181640624	-688.7869873046875	-84.34673309326172	-130.009521484375	-707.6795043945312	-0.0	-0.0	-0.0	-0.0	-0.0	-0.0	146730.8125	70643.2109375	-36034.3125
0.2995	-0.0	-0.0	-0.0	-84.0946273803711	104.04164123535156	-694.6699829101562	-92.04679870605467	-130.53074645996094	-710.2605590820312	-0.0	-0.0	-0.0	-0.0	-0.0	-0.0	147028.9375	71450.65625	-37472.390625
0.3	-0.0	-0.0	-0.0	-92.17182159423828	103.23544311523438	-697.4592895507812	-99.2629165649414	-131.24603271484375	-712.9151000976562	-0.0	-0.0	-0.0	-0.0	-0.0	-0.0	147199.234375	72064.25	-39076.52734375
0.3005	-0.0	-0.0	-0.0	-99.89295959472656	101.61321258544922	-695.4654541015625	-106.69197845458984	-132.29238891601562	-712.5473022460938	-0.0	-0.0	-0.0	-0.0	-0.0	-0.0	147002.9375	72927.2578125	-40559.16015625
0.301	-0.0	-0.0	-0.0	-107.12791442871094	99.2160415649414	-692.6409301757812	-113.07868957519533	-132.66375732421875	-707.1043090820312	-0.0	-0.0	-0.0	-0.0	-0.0	-0.0	146134.34375	73325.90625	-41667.29296875
0.3015	-0.0	-0.0	-0.0	-113.19873809814452	95.98873901367188	-686.97216796875	-119.26478576660156	-131.61322021484375	-699.0198974609375	-0.0	-0.0	-0.0	-0.0	-0.0	-0.0	143662.390625	73217.4296875	-42366.07421875
0.302	-0.0	-0.0	-0.0	-119.24581146240234	93.13172912597656	-674.7249755859375	-123.662841796875	-130.269775390625	-687.1862182617188	-0.0	-0.0	-0.0	-0.0	-0.0	-0.0	140473.703125	72744.6953125	-42829.3515625
0.3025	-0.0	-0.0	-0.0	-121.97018432617188	88.33792877197266	-657.6787109375	-125.9452896118164	-127.4529800415039	-662.2940673828125	-0.0	-0.0	-0.0	-0.0	-0.0	-0.0	135815.0	71219.234375	-42483.8046875
0.303	-0.0	-0.0	-0.0	-120.11176300048828	81.47428894042969	-629.1301879882812	-123.17438507080078	-122.1138916015625	-634.6000366210938	-0.0	-0.0	-0.0	-0.0	-0.0	-0.0	128726.0	68537.421875	-40740.0859375
0.3035	-0.0	-0.0	-0.0	-111.0575714111328	74.58268737792969	-586.8290405273438	-112.48041534423828	-114.26869201660156	-590.3186645507812	-0.0	-0.0	-0.0	-0.0	-0.0	-0.0	118692.546875	64477.04296875	-36918.82421875
0.304	-0.0	-0.0	-0.0	-95.32418060302734	63.70479965209961	-522.913818359375	-92.41449737548828	-100.2565460205078	-525.248046875	-0.0	-0.0	-0.0	-0.0	-0.0	-0.0	104749.8125	58073.07421875	-30634.3984375
0.3045	-0.0	-0.0	-0.0	-74.29295349121094	49.09859085083008	-437.7647399902344	-68.06697082519531	-80.76414489746094	-439.4234924316406	-0.0	-0.0	-0.0	-0.0	-0.0	-0.0	86096.7421875	49693.5234375	-23039.998046875
0.305	-0.0	-0.0	-0.0	-52.30791091918945	31.99192237854004	-337.1989440917969	-41.23298263549805	-55.614933013916016	-333.4519958496094	-0.0	-0.0	-0.0	-0.0	-0.0	-0.0	65002.37890625	38935.15625	-14517.0888671875
0.3055	-0.0	-0.0	-0.0	-32.0168342590332	17.354496002197266	-240.97463989257807	-18.504112243652344	-30.91269874572754	-231.77545166015625	-0.0	-0.0	-0.0	-0.0	-0.0	-0.0	43911.6484375	27656.4453125	-7245.1064453125
0.306	-0.0	-0.0	-0.0	-6.383640289306641	8.016398429870605	-146.3709259033203	5.059291839599609	-10.055368423461914	-130.9001007080078	-0.0	-0.0	-0.0	-0.0	-0.0	-0.0	23927.47265625	15907.45703125	-18.84281539916992
0.3065	-0.0	-0.0	-0.0	15.630587577819824	-2.201183557510376	-65.6816177368164	21.80674362182617	5.963107109069824	-51.35654067993164	-0.0	-0.0	-0.0	-0.0	-0.0	-0.0	8637.0029296875	6205.75830078125	4759.6787109375
0.307	-0.0	-0.0	-0.0	-0.0	-0.0	-0.0	-0.0	-0.0	-0.0	-0.0	-0.0	-0.0	-0.0	-0.0	-0.0	-0.0	-0.0	-0.0
0.3075	-0.0	-0.0	-0.0	-0.0	-0.0	-0.0	-0.0	-0.0	-0.0	-0.0	-0.0	-0.0	-0.0	-0.0	-0.0	-0.0	-0.0	-0.0
0.308	-0.0	-0.0	-0.0	-0.0	-0.0	-0.0	-0.0	-0.0	-0.0	-0.0	-0.0	-0.0	-0.0	-0.0	-0.0	-0.0	-0.0	-0.0
0.3085	-0.0	-0.0	-0.0	-0.0	-0.0	-0.0	-0.0	-0.0	-0.0	-0.0	-0.0	-0.0	-0.0	-0.0	-0.0	-0.0	-0.0	-0.0
0.309	-0.0	-0.0	-0.0	-0.0	-0.0	-0.0	-0.0	-0.0	-0.0	-0.0	-0.0	-0.0	-0.0	-0.0	-0.0	-0.0	-0.0	-0.0
0.3095	-0.0	-0.0	-0.0	-0.0	-0.0	-0.0	-0.0	-0.0	-0.0	-0.0	-0.0	-0.0	-0.0	-0.0	-0.0	-0.0	-0.0	-0.0
0.31	-0.0	-0.0	-0.0	-0.0	-0.0	-0.0	-0.0	-0.0	-0.0	-0.0	-0.0	-0.0	-0.0	-0.0	-0.0	-0.0	-0.0	-0.0
0.3105	-0.0	-0.0	-0.0	-0.0	-0.0	-0.0	-0.0	-0.0	-0.0	-0.0	-0.0	-0.0	-0.0	-0.0	-0.0	-0.0	-0.0	-0.0
0.311	-0.0	-0.0	-0.0	-0.0	-0.0	-0.0	-0.0	-0.0	-0.0	-0.0	-0.0	-0.0	-0.0	-0.0	-0.0	-0.0	-0.0	-0.0
0.3115	-0.0	-0.0	-0.0	-0.0	-0.0	-0.0	-0.0	-0.0	-0.0	-0.0	-0.0	-0.0	-0.0	-0.0	-0.0	-0.0	-0.0	-0.0
0.312	-0.0	-0.0	-0.0	-0.0	-0.0	-0.0	-0.0	-0.0	-0.0	-0.0	-0.0	-0.0	-0.0	-0.0	-0.0	-0.0	-0.0	-0.0
0.3125	-0.0	-0.0	-0.0	-0.0	-0.0	-0.0	-0.0	-0.0	-0.0	-0.0	-0.0	-0.0	-0.0	-0.0	-0.0	-0.0	-0.0	-0.0
0.313	-0.0	-0.0	-0.0	-0.0	-0.0	-0.0	-0.0	-0.0	-0.0	-0.0	-0.0	-0.0	-0.0	-0.0	-0.0	-0.0	-0.0	-0.0
0.3135	-0.0	-0.0	-0.0	-0.0	-0.0	-0.0	-0.0	-0.0	-0.0	-0.0	-0.0	-0.0	-0.0	-0.0	-0.0	-0.0	-0.0	-0.0
0.314	-0.0	-0.0	-0.0	-0.0	-0.0	-0.0	-0.0	-0.0	-0.0	-0.0	-0.0	-0.0	-0.0	-0.0	-0.0	-0.0	-0.0	-0.0
0.3145	-0.0	-0.0	-0.0	-0.0	-0.0	-0.0	-0.0	-0.0	-0.0	-0.0	-0.0	-0.0	-0.0	-0.0	-0.0	-0.0	-0.0	-0.0
0.315	-0.0	-0.0	-0.0	-0.0	-0.0	-0.0	-0.0	-0.0	-0.0	-0.0	-0.0	-0.0	-0.0	-0.0	-0.0	-0.0	-0.0	-0.0
0.3155	-0.0	-0.0	-0.0	-0.0	-0.0	-0.0	-0.0	-0.0	-0.0	-0.0	-0.0	-0.0	-0.0	-0.0	-0.0	-0.0	-0.0	-0.0
0.316	-0.0	-0.0	-0.0	-0.0	-0.0	-0.0	-0.0	-0.0	-0.0	-0.0	-0.0	-0.0	-0.0	-0.0	-0.0	-0.0	-0.0	-0.0
0.3165	-0.0	-0.0	-0.0	-0.0	-0.0	-0.0	-0.0	-0.0	-0.0	-0.0	-0.0	-0.0	-0.0	-0.0	-0.0	-0.0	-0.0	-0.0
0.317	-0.0	-0.0	-0.0	-0.0	-0.0	-0.0	-0.0	-0.0	-0.0	-0.0	-0.0	-0.0	-0.0	-0.0	-0.0	-0.0	-0.0	-0.0
0.3175	-0.0	-0.0	-0.0	-0.0	-0.0	-0.0	-0.0	-0.0	-0.0	-0.0	-0.0	-0.0	-0.0	-0.0	-0.0	-0.0	-0.0	-0.0
0.318	-0.0	-0.0	-0.0	-0.0	-0.0	-0.0	-0.0	-0.0	-0.0	-0.0	-0.0	-0.0	-0.0	-0.0	-0.0	-0.0	-0.0	-0.0
0.3185	-0.0	-0.0	-0.0	-0.0	-0.0	-0.0	-0.0	-0.0	-0.0	-0.0	-0.0	-0.0	-0.0	-0.0	-0.0	-0.0	-0.0	-0.0
0.319	-0.0	-0.0	-0.0	-0.0	-0.0	-0.0	-0.0	-0.0	-0.0	-0.0	-0.0	-0.0	-0.0	-0.0	-0.0	-0.0	-0.0	-0.0
0.3195	-0.0	-0.0	-0.0	-0.0	-0.0	-0.0	-0.0	-0.0	-0.0	-0.0	-0.0	-0.0	-0.0	-0.0	-0.0	-0.0	-0.0	-0.0
0.32	-0.0	-0.0	-0.0	-0.0	-0.0	-0.0	-0.0	-0.0	-0.0	-0.0	-0.0	-0.0	-0.0	-0.0	-0.0	-0.0	-0.0	-0.0
0.3205	-0.0	-0.0	-0.0	-0.0	-0.0	-0.0	-0.0	-0.0	-0.0	-0.0	-0.0	-0.0	-0.0	-0.0	-0.0	-0.0	-0.0	-0.0
0.321	-0.0	-0.0	-0.0	-0.0	-0.0	-0.0	-0.0	-0.0	-0.0	-0.0	-0.0	-0.0	-0.0	-0.0	-0.0	-0.0	-0.0	-0.0
0.3215	-0.0	-0.0	-0.0	-0.0	-0.0	-0.0	-0.0	-0.0	-0.0	-0.0	-0.0	-0.0	-0.0	-0.0	-0.0	-0.0	-0.0	-0.0
0.322	-0.0	-0.0	-0.0	-0.0	-0.0	-0.0	-0.0	-0.0	-0.0	-0.0	-0.0	-0.0	-0.0	-0.0	-0.0	-0.0	-0.0	-0.0
0.3225	-0.0	-0.0	-0.0	-0.0	-0.0	-0.0	-0.0	-0.0	-0.0	-0.0	-0.0	-0.0	-0.0	-0.0	-0.0	-0.0	-0.0	-0.0
0.323	-0.0	-0.0	-0.0	-0.0	-0.0	-0.0	-0.0	-0.0	-0.0	-0.0	-0.0	-0.0	-0.0	-0.0	-0.0	-0.0	-0.0	-0.0
